<svg width="12901" height="12765" viewBox="0 0 12901 12765" fill="none" xmlns="http://www.w3.org/2000/svg">
<path d="M3387.75 3150.67H326L6449.5 0L12573 3150.67H9608.75L7239.31 1575.33V4926.67L9608.75 3351.33H12573L6449.5 6502L3387.75 4926.67L326 3351.33H3387.75L5684.06 4926.67V1575.33L3387.75 3150.67Z" fill="#4242BD"/>
<path d="M8951.62 11952L9741.5 11545.7L10531.4 11139.3V7888.67V6263.33L12901 6669.67V3419L6582 6669.67V8295V9107.67V9920.33L8951.62 7076V8701.33V11952Z" fill="#1B0F6F"/>
<path d="M1375.6 4126.67L0 3419V4158.86V4898.72V6378.44V9337.89L687.802 10274.4L1375.6 10628.2L3057.43 11493.4L4739.25 12358.7L5529.13 12765L6319 12358.7V9514.22V8092V7380.89V6669.78L4739.25 5857.09V9107.87V10733.3L3071.12 10628.2L1375.6 9002.85V7377.46V4126.67Z" fill="#5E76FF"/>
</svg>
